<svg  fill="none" xmlns="http://www.w3.org/2000/svg"><path fill="#E5E5E5" d="M0 0h16v12H0z"/><g clip-path="url(#clip0)"><path fill="#fff" d="M-1052-34H548v3018h-1600z"/><path fill="#fff" d="M-1052-34H548v80h-1600z"/><path d="M15 0H2L0 1v9l2 1h13l1-1V1l-1-1zm0 1L8 6 1 1a1 1 0 011 0h13zm0 9H1V2l7 5 7-5v8z" fill="#757575"/><path d="M15 0H2L0 1v9l2 1h13l1-1V1l-1-1zm0 1L8 6 1 1a1 1 0 011 0h13zm0 9H1V2l7 5 7-5v8z" fill="#2196F3"/></g><defs><clipPath id="clip0"><path fill="#fff" d="M-1052-34H548v3018h-1600z"/></clipPath></defs></svg>