<svg aria-hidden="true" style="position:absolute;width:0;height:0" xmlns="http://www.w3.org/2000/svg" overflow="hidden"><defs><symbol id="icon-antenna" viewBox="0 0 32 32"><path fill="var(--color1, #e5e5e5)" d="M0 0h32v32H0z"/><path fill="var(--color2, #fff)" d="M-144-365.257h731.429V1014.4H-144z"/><path fill="var(--color3, #f5f4fa)" d="M-43.886-11.429H75.885A1.83 1.83 0 0177.714-9.6v51.2a1.83 1.83 0 01-1.829 1.829H-43.886a1.83 1.83 0 01-1.829-1.829V-9.6a1.83 1.83 0 011.829-1.829z"/><path fill="var(--color4, #212121)" d="M30.629 21.943L22.4 13.714l.914-4.571h.914a2.286 2.286 0 10-2.281-1.357l-.006-.015-5.029.457L9.141-.001h-.914L6.856 1.828v.457l.457.914c-1.11 2.049-1.762 4.486-1.762 7.076 0 4.209 1.723 8.015 4.503 10.751l.002.002v6.857h-6.4c-1.371 0-2.743.914-2.743 2.743v.914l.914.457h24.229l.457-.457v-.914c0-1.829-.914-2.743-2.286-2.743h-6.4v-2.743c.748.132 1.61.207 2.49.207 2.787 0 5.398-.756 7.638-2.074l-.071.038.457.914.457.457 1.829-1.829v-.914zM23.314 6.4a1.022 1.022 0 01.92 1.826l-.006.003a1.022 1.022 0 01-.92-1.826l.006-.003zm-1.371 3.2l-.457 3.2-1.371-1.371L21.944 9.6zm-.457-.914l-1.829 2.286-1.829-1.829 3.657-.457zM24.229 28.8c.457 0 1.371.914 1.371 1.829v.457H2.286v-.457c0-.914.457-1.829 1.371-1.829h20.571zm-7.772-2.286v1.371h-5.029v-1.371h5.029zm-5.028-.914v-4.114c0-1.371.914-2.286 2.286-2.286 1.829 0 2.743.914 2.743 2.286V25.6h-5.029zm6.4-1.829v-2.286c0-1.829-1.829-3.2-4.114-3.2-1.371 0-2.286.457-3.2 1.829-4.114-4.571-5.029-10.971-2.286-16l18.743 18.743c-2.743 1.371-6.4 1.829-9.143.914zm10.971-.457l-.457-.914L7.772 1.829l.914-.457 21.029 21.029-.914.914z"/><path fill="var(--color5, #2196f3)" d="M13.714 20.114a1.6 1.6 0 100 3.2 1.6 1.6 0 100-3.2zm.457 2.286a.511.511 0 01-.46-.913l.003-.001a.511.511 0 01.46.913l-.003.001z"/></symbol><symbol id="icon-astronaut" viewBox="0 0 32 32"><path fill="var(--color1, #e5e5e5)" d="M0 0h32v32H0V0z"/><path fill="var(--color2, #fff)" d="M-555.429-365.257H176V1014.4h-731.429V-365.257z"/><path fill="var(--color3, #f5f4fa)" d="M-43.886-11.429H75.885A1.83 1.83 0 0177.714-9.6v51.2a1.83 1.83 0 01-1.829 1.829H-43.886a1.83 1.83 0 01-1.829-1.829V-9.6a1.83 1.83 0 011.829-1.829z"/><path fill="var(--color5, #2196f3)" d="M31.974 4.524a.534.534 0 00-.43-.363l-1.91-.278-.855-1.731c-.179-.365-.777-.365-.956 0l-.855 1.731-1.91.278a.535.535 0 00-.296.91l1.383 1.348-.326 1.903c-.034.2.048.402.212.522a.53.53 0 00.562.04l1.709-.899 1.709.899a.536.536 0 00.775-.563l-.326-1.903 1.383-1.348a.536.536 0 00.135-.547zm-2.463 1.327a.534.534 0 00-.153.472l.191 1.114-1-.526a.533.533 0 00-.498 0l-1.001.526.191-1.114a.534.534 0 00-.153-.472l-.81-.789 1.119-.163a.532.532 0 00.402-.292l.5-1.013.5 1.013a.535.535 0 00.402.292l1.119.163-.809.789zM26.133 20.522h-1.067v1.067h1.067v-1.067zM26.133 22.656h-1.067v1.067h1.067v-1.067zM27.2 21.589h-1.067v1.067H27.2v-1.067zM25.067 21.589H24v1.067h1.067v-1.067zM22.4 26.389h-1.067v1.067H22.4v-1.067zM22.4 28.522h-1.067v1.067H22.4v-1.067zM23.467 27.456H22.4v1.067h1.067v-1.067zM21.333 27.456h-1.067v1.067h1.067v-1.067zM16 24.256h-1.067v1.067H16v-1.067zM16 26.389h-1.067v1.067H16v-1.067zM17.067 25.322H16v1.067h1.067v-1.067zM14.933 25.322h-1.067v1.067h1.067v-1.067zM5.866 6.122H4.799v1.067h1.067V6.122zM5.866 8.255H4.799v1.067h1.067V8.255z"/><path fill="var(--color5, #2196f3)" d="M6.933 7.189H5.866v1.067h1.067V7.189zM4.8 7.189H3.733v1.067H4.8V7.189z"/><path fill="var(--color4, #212121)" d="M24.715 14.159a1.775 1.775 0 00-1.188-.705 1.778 1.778 0 00-1.34.352l-1.252.96-1.898 1.417-1.358-.541c2.421-1.086 4.114-3.508 4.114-6.32 0-3.823-3.123-6.933-6.961-6.933s-6.961 3.11-6.961 6.933a6.86 6.86 0 001.12 3.758l-2.764-.024h-.005c-.009 0-.015.004-.023.005a.515.515 0 00-.155.031l-.038.013c-.006.003-.013.003-.019.006l-3.233 1.596-.001.001-1.893.911a.397.397 0 00-.063.035 1.779 1.779 0 00-.598 2.295c.22.429.595.745 1.056.889a1.776 1.776 0 001.378-.128l1.388-.738 2.264-1.169 1.357-.008L2.2 22.211l-.002.001-1.339 1.333c-.316.315-.49.732-.49 1.178s.174.863.49 1.179c.325.323.752.485 1.179.485s.854-.162 1.18-.485l1.314-1.309 1.741-1.3.901.897-1.762 1.754-.002.001-1.339 1.333c-.316.315-.49.732-.49 1.178s.174.863.49 1.179c.325.323.753.485 1.18.485s.855-.162 1.18-.485l3.482-3.467.001-.002 1.01-1-.004-.004c.006-.006.015-.009.022-.015l5.166-5.658 3.471.494a.52.52 0 00.262-.033c.018-.006.033-.015.05-.023.019-.01.039-.015.058-.027l3.213-2.133c.012-.008.018-.021.029-.029.013-.01.029-.014.041-.026l1.271-1.191c.662-.62.753-1.635.212-2.362zM2.13 17.77a.714.714 0 01-.558.052.717.717 0 01-.213-1.26l1.314-.632.449 1.313-.992.527zm3.498-1.828l-1.548.8-.439-1.283 2.027-1.001-.04 1.484zm15.099-6.62a5.79 5.79 0 01-.599 2.559l-4.181-1.899a1.863 1.863 0 00-.788-1.388l1.464-4.86c2.378.756 4.105 2.974 4.105 5.588zm-11.789 0c0-3.235 2.644-5.867 5.894-5.867.253 0 .5.021.745.052l-1.432 4.754c-.019-.001-.037-.006-.057-.006-1.033 0-1.873.837-1.873 1.867s.84 1.867 1.873 1.867c.694 0 1.294-.383 1.618-.945l3.862 1.755a5.894 5.894 0 01-4.737 2.39c-3.25 0-5.894-2.632-5.894-5.867zm5.956.8c0 .441-.362.8-.806.8s-.806-.359-.806-.8c0-.441.362-.8.806-.8s.806.359.806.8zM2.465 25.146a.608.608 0 01-.854.001.592.592 0 010-.844l.962-.959.851.848-.959.955zm3.214 3.734a.608.608 0 01-.855.001.592.592 0 010-.844l.963-.959.852.848-.96.955zm3.481-3.469l-.002.001-1.765 1.76-.852-.848 1.763-1.755.002-.001c.04-.04.065-.088.09-.135.007-.014.02-.026.026-.04.017-.041.019-.085.026-.129.003-.025.014-.047.014-.073 0-.036-.013-.07-.02-.106-.006-.032-.006-.065-.019-.095a.55.55 0 00-.091-.138c-.01-.012-.014-.027-.025-.038h-.001l-.001-.002-1.607-1.6c-.017-.017-.039-.024-.058-.038a.507.507 0 00-.087-.058.515.515 0 00-.093-.033.507.507 0 00-.103-.02.5.5 0 00-.095.005.53.53 0 00-.104.02.477.477 0 00-.094.045c-.02.011-.042.015-.061.029L4.23 23.486l-.901-.897 2.399-2.386 4.361 4.289-.928.919zm6.819-7.017c-.015-.002-.03.004-.045.003a.556.556 0 00-.3.075.492.492 0 00-.083.061c-.013.011-.028.017-.04.029l-4.698 5.146-4.328-4.257 2.833-2.818a.534.534 0 00-.379-.911v-.001l-2.219.013.028-1.607 3.104.027a6.947 6.947 0 004.981 2.101c.437 0 .864-.045 1.279-.123.04.032.079.065.13.085l2.41.96.152.758.178.885-3.003-.427zm4.041.178l-.313-1.558 1.446-1.08.947 1.257-2.08 1.381zm3.754-2.831l-.838.785-.931-1.236.831-.637a.735.735 0 01.543-.143.718.718 0 01.48.284.713.713 0 01-.085.947z"/><path fill="var(--color4, #212121)" d="M13.602 18.544l-2.143-2.133a.534.534 0 00-.753 0l-2.142 2.133a.537.537 0 000 .756l2.142 2.133a.536.536 0 00.753 0l2.143-2.133a.535.535 0 000-.756zm-2.519 1.759l-1.387-1.381 1.387-1.381 1.387 1.381-1.387 1.381zM17.164 5.071l-.258 1.036c.071.018 1.738.452 1.738 2.149h1.067c0-2.017-1.666-2.965-2.547-3.185zM19.711 9.322h-1.067v1.067h1.067V9.322z"/></symbol><symbol id="icon-clock" viewBox="0 0 32 32"><path fill="var(--color1, #e5e5e5)" d="M0 0h32v32H0V0z"/><path fill="var(--color2, #fff)" d="M-281.143-365.257h731.429V1014.4h-731.429V-365.257z"/><path fill="var(--color3, #f5f4fa)" d="M-43.886-11.429H75.885A1.83 1.83 0 0177.714-9.6v51.2a1.83 1.83 0 01-1.829 1.829H-43.886a1.83 1.83 0 01-1.829-1.829V-9.6a1.83 1.83 0 011.829-1.829z"/><path fill="var(--color4, #212121)" d="M31.297 15.301C31.295 6.849 24.442-.002 15.989 0S.686 6.855.688 15.308a15.304 15.304 0 0010.649 14.576.662.662 0 00.529-.065.637.637 0 00.283-.356l3.865-12.25a1.912 1.912 0 10-.84-3.635l-5.106-5.107a.637.637 0 00-.902.902l5.103 5.109a1.876 1.876 0 00.536 2.309l-3.683 11.673C3.844 25.783.118 17.71 2.799 10.432S13.553-.572 20.831 2.109s11.004 10.754 8.323 18.032a14.042 14.042 0 01-7.462 7.973l-.398-1.874a.638.638 0 00-1.048-.344l-3.837 3.426a.637.637 0 00.231 1.084l4.899 1.563a.638.638 0 00.819-.74l-.391-1.839a15.255 15.255 0 009.329-14.089zm-15.305-.637a.638.638 0 110 1.277.638.638 0 010-1.277zm2.101 14.864l2.184-1.948.603 2.84-2.787-.892z"/><path fill="var(--color5, #2196f3)" d="M15.354 3.185V4.46a.638.638 0 101.276 0V3.185a.638.638 0 00-1.276 0zM3.876 14.664a.638.638 0 000 1.276h1.275a.638.638 0 100-1.276H3.876zM28.108 15.939a.638.638 0 100-1.276h-1.275a.638.638 0 000 1.276h1.275z"/></symbol><symbol id="icon-diagram" viewBox="0 0 32 32"><path fill="var(--color1, #e5e5e5)" d="M0 0h32v32H0V0z"/><path fill="var(--color2, #fff)" d="M-418.286-365.257h731.429V1014.4h-731.429V-365.257z"/><path fill="var(--color3, #f5f4fa)" d="M-43.886-11.429H75.885A1.83 1.83 0 0177.714-9.6v51.2a1.83 1.83 0 01-1.829 1.829H-43.886a1.83 1.83 0 01-1.829-1.829V-9.6a1.83 1.83 0 011.829-1.829z"/><path fill="var(--color5, #2196f3)" d="M14.926 14.965h1.066v4.798h-1.066v-4.797zM19.19 17.097h1.066v2.665H19.19v-2.665zM10.661 18.696h1.066v1.066h-1.066v-1.066zM7.463 18.163h1.066v1.599H7.463v-1.599z"/><path fill="var(--color4, #212121)" d="M1.599 28.291h25.587a1.6 1.6 0 001.599-1.599V24.56a1.6 1.6 0 00-1.599-1.599h-.533V9.668L29.681 6.8a1.608 1.608 0 10-.746-.763L26.654 8.2V6.97a1.6 1.6 0 00-1.599-1.599H3.733A1.6 1.6 0 002.134 6.97v15.992h-.533a1.6 1.6 0 00-1.599 1.599v2.132a1.6 1.6 0 001.599 1.599zM30.384 4.837a.533.533 0 110 1.067.533.533 0 010-1.067zM3.198 6.969c0-.294.239-.533.533-.533h21.322c.294 0 .533.239.533.533v2.239l-1.066 1.013V8.035a.533.533 0 00-.533-.533H4.797a.533.533 0 00-.533.533v13.326c0 .294.239.533.533.533h19.19a.533.533 0 00.533-.533v-9.674l1.066-1.01v12.284H3.198V6.969zm4.798 6.93a1.598 1.598 0 101.107 2.749l1.853.93a.532.532 0 00.636-.123l3.939-4.431 3.872 2.901a.533.533 0 00.686-.039l3.365-3.188v8.131H5.33V8.569h18.124v2.66l-3.771 3.572-3.904-2.927a.533.533 0 00-.718.072l-3.993 4.493-1.493-.746c.011-.064.018-.129.02-.193a1.6 1.6 0 00-1.599-1.599zm.533 1.599a.533.533 0 11-1.067 0 .533.533 0 011.067 0zm3.198 8.528h5.331v.533a.533.533 0 01-.533.533h-4.264a.533.533 0 01-.533-.533v-.533zm-10.661.534c0-.294.239-.533.533-.533h9.062v.533a1.6 1.6 0 001.599 1.599h4.264a1.6 1.6 0 001.599-1.599v-.533h9.062c.294 0 .533.239.533.533v2.132a.533.533 0 01-.533.533H1.598a.533.533 0 01-.533-.533V24.56z"/></symbol><symbol id="icon-envelope" viewBox="0 0 64 32"><path fill="var(--color6, #757575)" d="M3.2 0H.427L0 .213v1.92l.427.213H3.2l.213-.213V.213L3.2 0zm0 .213L1.707 1.28.214.213h2.987zm0 1.92H.213V.426l1.493 1.067L3.199.426v1.707z"/></symbol><symbol id="icon-Facebook" viewBox="0 0 32 32"><path fill="var(--color1, #e5e5e5)" d="M0 0h32v32H0V0z"/><path fill="var(--color2, #fff)" d="M-250.182-1555.636H913.454V570.909H-250.182v-2126.545z"/><path fill="var(--color3, #f5f4fa)" d="M-250.182-392.727H913.454v510.545H-250.182v-510.545z"/><path fill="var(--color2, #fff)" d="M-101.818-257.455H94.546a2.908 2.908 0 012.909 2.909V46.545a2.908 2.908 0 01-2.909 2.909h-196.364a2.908 2.908 0 01-2.909-2.909v-301.091a2.908 2.908 0 012.909-2.909z"/><path fill="var(--color7, #afb1b8)" d="M18.422 11.142h1.328V8.829a17.317 17.317 0 00-1.935-.102c-1.915 0-3.226 1.204-3.226 3.418v2.037h-2.113v2.585h2.113v6.505h2.59v-6.505h2.027l.322-2.585h-2.35v-1.781c.001-.747.202-1.259 1.243-1.259z"/></symbol><symbol id="icon-Instagram" viewBox="0 0 32 32"><path fill="var(--color1, #e5e5e5)" d="M0 0h32v32H0V0z"/><path fill="var(--color2, #fff)" d="M-394.909-1555.636H768.727V570.909H-394.909v-2126.545z"/><path fill="var(--color3, #f5f4fa)" d="M-394.909-392.727H768.727v510.545H-394.909v-510.545z"/><path fill="var(--color2, #fff)" d="M-22.545-257.455h196.364a2.908 2.908 0 012.909 2.909V46.545a2.908 2.908 0 01-2.909 2.909H-22.545a2.908 2.908 0 01-2.909-2.909v-301.091a2.908 2.908 0 012.909-2.909z"/><path fill="var(--color7, #afb1b8)" d="M23.258 13.004c-.034-.773-.159-1.304-.338-1.765a3.557 3.557 0 00-.841-1.29 3.589 3.589 0 00-1.287-.838c-.463-.179-.992-.304-1.764-.338-.779-.037-1.026-.046-3.001-.046s-2.222.009-2.998.043c-.773.034-1.304.159-1.764.338a3.557 3.557 0 00-1.29.841 3.589 3.589 0 00-.838 1.287c-.179.463-.304.992-.338 1.764-.037.779-.045 1.026-.045 3.001s.008 2.222.043 2.998c.034.773.159 1.304.338 1.765.185.489.472.926.841 1.29.364.369.804.656 1.287.838.463.179.992.304 1.765.338.776.034 1.023.043 2.998.043s2.222-.008 2.998-.043c.773-.034 1.304-.159 1.764-.338a3.72 3.72 0 002.128-2.128c.179-.463.304-.992.338-1.765.034-.776.043-1.023.043-2.998s-.003-2.222-.037-2.998zm-1.309 5.938c-.031.71-.151 1.094-.25 1.35a2.409 2.409 0 01-1.381 1.381c-.256.099-.642.219-1.35.25-.767.034-.997.043-2.938.043s-2.174-.008-2.938-.043c-.71-.031-1.094-.15-1.35-.25a2.228 2.228 0 01-.835-.543 2.264 2.264 0 01-.543-.835c-.099-.256-.219-.642-.25-1.35-.034-.767-.043-.997-.043-2.938s.008-2.174.043-2.938c.031-.71.151-1.094.25-1.35.117-.315.301-.602.546-.835.236-.242.52-.426.835-.543.256-.099.642-.219 1.35-.25.767-.034.997-.043 2.938-.043 1.944 0 2.174.008 2.938.043.71.031 1.094.151 1.35.25.315.116.602.301.835.543.241.236.426.52.543.835.099.256.219.642.25 1.35.034.767.043.997.043 2.938s-.009 2.168-.043 2.935z"/><path fill="var(--color7, #afb1b8)" d="M16.027 12.265a3.737 3.737 0 10.003 7.475 3.737 3.737 0 00-.003-7.475zm0 6.16a2.424 2.424 0 110-4.849 2.424 2.424 0 010 4.849zM20.784 12.117a.872.872 0 11-1.744 0 .872.872 0 011.744 0z"/></symbol><symbol id="icon-Linkedin" viewBox="0 0 32 32"><path fill="var(--color1, #e5e5e5)" d="M0 0h32v32H0V0z"/><path fill="var(--color2, #fff)" d="M-289.455-1555.636H874.181V570.909H-289.455v-2126.545z"/><path fill="var(--color3, #f5f4fa)" d="M-289.455-392.727H874.181v510.545H-289.455v-510.545z"/><path fill="var(--color2, #fff)" d="M-141.091-257.455H55.273a2.908 2.908 0 012.909 2.909V46.545a2.908 2.908 0 01-2.909 2.909h-196.364A2.908 2.908 0 01-144 46.545v-301.091a2.908 2.908 0 012.909-2.909z"/><path fill="var(--color7, #afb1b8)" d="M23.269 23.273v-.001h.004v-5.335c0-2.61-.562-4.62-3.613-4.62-1.467 0-2.451.805-2.853 1.568h-.042v-1.324h-2.893v9.711h3.012v-4.809c0-1.266.24-2.49 1.808-2.49 1.545 0 1.568 1.445 1.568 2.572v4.728h3.009zM8.967 13.562h3.016v9.711H8.967v-9.711zM10.474 8.727c-.964 0-1.747.782-1.747 1.747s.782 1.763 1.747 1.763c.964 0 1.747-.799 1.747-1.763s-.783-1.747-1.747-1.747z"/></symbol><symbol id="icon-smartphone" viewBox="0 0 64 32"><path fill="var(--color1, #e5e5e5)" d="M0 0h2.133v3.2H0z"/><path fill="var(--color2, #fff)" d="M-265.173-7.04H76.16V636.8h-341.333z"/><path fill="var(--color2, #fff)" d="M-265.173-7.04H76.16v17.067h-341.333z"/><path fill="var(--color6, #757575)" d="M1.92 0H.427L0 .213v2.773l.427.213H1.92l.213-.213V.213L1.92 0zM.427.213H1.92v2.133H.213V.213h.213zM1.92 2.987H.213V2.56H1.92v.427z"/><path fill="var(--color6, #757575)" d="M.427 2.773c.213 0 .213 0 0 0 0 .213 0 .213 0 0-.213 0-.213 0 0 0z"/></symbol><symbol id="icon-Twitter" viewBox="0 0 32 32"><path fill="var(--color1, #e5e5e5)" d="M0 0h32v32H0V0z"/><path fill="var(--color2, #fff)" d="M-210.909-1555.636H952.727V570.909H-210.909v-2126.545z"/><path fill="var(--color3, #f5f4fa)" d="M-210.909-392.727H952.727v510.545H-210.909v-510.545z"/><path fill="var(--color2, #fff)" d="M-62.545-257.455h196.364a2.908 2.908 0 012.909 2.909V46.545a2.908 2.908 0 01-2.909 2.909H-62.545a2.908 2.908 0 01-2.909-2.909v-301.091a2.908 2.908 0 012.909-2.909z"/><path fill="var(--color7, #afb1b8)" d="M23.273 11.49a6.248 6.248 0 01-1.718.471 2.967 2.967 0 001.312-1.648 5.963 5.963 0 01-1.891.722 2.981 2.981 0 00-5.158 2.039c0 .236.02.464.069.68a8.439 8.439 0 01-6.146-3.119 2.985 2.985 0 00.917 3.985 2.943 2.943 0 01-1.347-.367v.033a2.996 2.996 0 002.389 2.93 2.992 2.992 0 01-.782.098 2.64 2.64 0 01-.565-.051 3.01 3.01 0 002.786 2.077 5.991 5.991 0 01-3.697 1.272 5.59 5.59 0 01-.714-.041 8.393 8.393 0 004.575 1.338c5.487 0 8.487-4.545 8.487-8.485 0-.132-.005-.259-.011-.385a5.95 5.95 0 001.495-1.548z"/></symbol></defs></svg>