<svg aria-hidden="true" style="position:absolute;width:0;height:0" xmlns="http://www.w3.org/2000/svg" overflow="hidden"><defs>
<symbol id="icon-antenna" viewBox="0 0 32 32"><path fill="var(--color1, #e5e5e5)" d="M0 0h32v32H0z"/><path fill="var(--color2, #fff)" d="M-144-365h731v1379h-731z"/><path fill="var(--color3, #f5f4fa)" d="M-44-11H76l2 1v52l-2 1H-44l-2-1v-52l2-1z"/><path fill="var(--color4, #212121)" d="M31 22l-9-8 1-5h1a2 2 0 10-2-1h-5L9 0H8L7 2v1l-1 7c0 4 1 8 4 11v7H4c-2 0-3 1-3 3v1h26v-1c0-2-1-3-3-3h-6v-3h2c3 0 6 0 8-2v1l1 1 2-2v-1zM23 6h1a1 1 0 010 2 1 1 0 01-1-2zm-1 4l-1 3-1-2 2-1zm-1-1l-1 2-2-2h3zm3 20l2 2H2l2-2h20zm-8-2v1h-5v-1h5zm-5-1v-5c0-1 1-2 3-2s2 1 2 2v5h-5zm7-2v-3c0-1-2-3-4-3s-3 1-3 2C6 16 5 9 8 4l19 19c-3 1-6 2-9 1zm11-1l-1-1L8 2l1-1 21 21-1 1z"/><path fill="var(--color5, #2196f3)" d="M14 20a2 2 0 100 3 2 2 0 100-3zm0 2a1 1 0 010-1 1 1 0 010 1z"/></symbol>
<symbol id="icon-astronaut" viewBox="0 0 32 32"><path fill="var(--color1, #e5e5e5)" d="M0 0h32v32H0V0z"/><path fill="var(--color2, #fff)" d="M-555-365h731v1379h-731V-365z"/><path fill="var(--color3, #f5f4fa)" d="M-44-11H76l2 1v52l-2 1H-44l-2-1v-52l2-1z"/><path fill="var(--color5, #2196f3)" d="M32 5V4h-2l-1-2h-1l-1 2h-2a1 1 0 000 1l1 1v3h1l1-1 2 1a1 1 0 001-1l-1-2 2-1zm-2 1h-1l1 1h-1a1 1 0 00-1 0h-1V6l-1-1h2V4l1 1h1v1zM26 21h-1v1h1v-1zM26 23h-1v1h1v-1zM27 22h-1v1h1v-1zM25 22h-1v1h1v-1zM22 26h-1v1h1v-1zM22 29h-1v1h1v-1zM23 27h-1v2h1v-2zM21 27h-1v2h1v-2zM16 24h-1v1h1v-1zM16 26h-1v1h1v-1zM17 25h-1v1h1v-1zM15 25h-1v1h1v-1zM6 6H5v1h1V6zM6 8H5v1h1V8zM7 7H6v1h1V7zM5 7H4v1h1V7z"/><path fill="var(--color4, #212121)" d="M25 14l-1-1-2 1-1 1-2 1h-1a7 7 0 00-3-14 7 7 0 00-6 11H6l-3 2-2 1a2 2 0 001 3h1l1-1 2-1h2l-6 5-1 2a2 2 0 000 2 2 2 0 002 0l2-1 1-2 1 1-2 2-1 1a2 2 0 000 3 2 2 0 002 0l4-4 1-1 5-6 4 1 3-2 2-1v-3zM2 18a1 1 0 01-1-1l2-1v1l-1 1zm4-2l-2 1v-2l2-1v2zm15-7l-1 3-4-2-1-1 2-5c2 0 4 3 4 5zM9 9a6 6 0 017-5l-2 4a2 2 0 100 4l2-1 4 2A6 6 0 019 9zm6 1a1 1 0 01-2 0 1 1 0 012 0zM2 25a1 1 0 010-1l1-1v1l-1 1zm4 4H5a1 1 0 010-1l1-1 1 1-1 1zm3-4l-2 2v-1l1-1v-1l-1-2H6l-2 1H3l3-3 4 4-1 1zm7-7v1l-5 5-5-5 3-2a1 1 0 000-1H7v-2h3a7 7 0 006 2l3 1v2l-3-1zm4 1v-2l1-1 1 1-2 2zm4-3l-1 1-1-2h1s0-1 0 0a1 1 0 011 1z"/><path fill="var(--color4, #212121)" d="M14 19l-3-3-2 3 2 2 3-2zm-3 1l-1-1 1-1 1 1-1 1zM17 5v1l2 2h1c0-2-2-3-3-3zM20 9h-1v1h1V9z"/></symbol>
<symbol id="icon-clock" viewBox="0 0 32 32"><path fill="var(--color1, #e5e5e5)" d="M0 0h32v32H0V0z"/><path fill="var(--color2, #fff)" d="M-281-365h731v1379h-731V-365z"/><path fill="var(--color3, #f5f4fa)" d="M-44-11H76l2 1v52l-2 1H-44l-2-1v-52l2-1z"/><path fill="var(--color4, #212121)" d="M31 15a15 15 0 10-19 15v-1l4-12a2 2 0 10-1-3l-5-6a1 1 0 00-1 1l5 5 1 3-4 11a14 14 0 1111 0l-1-2a1 1 0 00-1 0l-4 3a1 1 0 001 1l5 2a1 1 0 000-1v-2c6-2 9-8 9-14zm-15 0a1 1 0 110 1 1 1 0 010-1zm2 15l2-2 1 2h-3z"/><path fill="var(--color5, #2196f3)" d="M15 3v1a1 1 0 102 0V3a1 1 0 00-2 0zM4 15a1 1 0 000 1h1a1 1 0 100-1H4zM28 16a1 1 0 100-1h-1a1 1 0 000 1h1z"/></symbol>
<symbol id="icon-diagram" viewBox="0 0 32 32"><path fill="var(--color1, #e5e5e5)" d="M0 0h32v32H0V0z"/><path fill="var(--color2, #fff)" d="M-418-365h731v1379h-731V-365z"/><path fill="var(--color3, #f5f4fa)" d="M-44-11H76l2 1v52l-2 1H-44l-2-1v-52l2-1z"/><path fill="var(--color5, #2196f3)" d="M15 15h1v5h-1v-5zM19 17h1v3h-1v-3zM11 19h1v1h-1v-1zM7 18h2v2H7v-2z"/><path fill="var(--color4, #212121)" d="M2 28h25l2-1v-2l-2-2V10l3-3a2 2 0 10-1-1l-2 2V7l-2-2H4L2 7v16l-2 2v2l2 1zM30 5a1 1 0 110 1 1 1 0 010-1zM3 7l1-1h21l1 1v2l-1 1V8H5 4v13l1 1h19l1-1v-9l1-1v12H3V7zm5 7a2 2 0 101 3l2 1 1-1 4-4 3 3h1l3-3v8H5V9h18v2l-3 4-4-3h-1l-4 4h-1v-1l-2-1zm1 1a1 1 0 11-2 0 1 1 0 012 0zm3 9h5v1h-5v-1zM1 25l1-1h9v1l1 1h5l1-1v-1h9l1 1v2H1v-2z"/></symbol></defs></svg>